# xmcd
#
# Track frame offsets:
#	150
#	17327
#	27264
#	33423
#	45586
#	58658
#	68400
#	76075
#	90796
#	107649
#	117456
#	128719
#	143622
#	156939
#	165524
#	181415
#	191268
#	199125
#
# Disc length: 2779 seconds
#
# Revision: 2
# Processed by: cddbd v1.5.2PL0 Copyright (c) Steve Scherf et al.
# Submitted via: EasyCDDAExtractor 12.0.1.1
#
DISCID=d60ad912
DTITLE=Gold Star Ballroom - Quick Step
DYEAR=2003
DGENRE=Ballroom
TTITLE0=QS 52 - After You've Gone
TTITLE1=QS 50 - Bye Bye Love
TTITLE2=QS 50 - Cabaret
TTITLE3=QS 50 - Country Roads
TTITLE4=QS 50 - I'll Be There For You
TTITLE5=QS 49 - I've Got Rhythm
TTITLE6=QS 50 - Jeepers Creepers
TTITLE7=QS 50 - Jessica
TTITLE8=QS 51 - Kingston Town
TTITLE9=QS 50 - Live And Let Die
TTITLE10=QS 50 - Marakesh Express
TTITLE11=QS 50 - Michael Row The Boat Ashore
TTITLE12=QS 50 - Nine To Five
TTITLE13=QS 50 - Perdido
TTITLE14=QS 52 - Riders In The Sky
TTITLE15=QS 49 - Skyliner
TTITLE16=QS 48 - Tangerine
TTITLE17=QS 49 - Strike Up The Band
EXTD=
EXTT0=
EXTT1=
EXTT2=
EXTT3=
EXTT4=
EXTT5=
EXTT6=
EXTT7=
EXTT8=
EXTT9=
EXTT10=
EXTT11=
EXTT12=
EXTT13=
EXTT14=
EXTT15=
EXTT16=
EXTT17=
PLAYORDER=
